<?xml version="1.0" encoding="utf-8"?>
<!-- Generator: Adobe Illustrator 22.1.0, SVG Export Plug-In . SVG Version: 6.00 Build 0)  -->
<svg version="1.1" id="Layer_1" xmlns="http://www.w3.org/2000/svg" xmlns:xlink="http://www.w3.org/1999/xlink" x="0px" y="0px"
	 viewBox="0 0 48 48" style="enable-background:new 0 0 48 48;" xml:space="preserve">
<style type="text/css">
	.st0{fill:#1FB47C;}
</style>
<path class="st0" d="M45.6,34.8c0,0.9-0.5,1.7-1.3,2.1l-19,10.7C25,47.9,24.5,48,24,48c-0.5,0-1-0.1-1.4-0.4l-19-10.7
	c-0.8-0.4-1.3-1.2-1.3-2.1V13.2c0-0.9,0.5-1.7,1.3-2.1l19-10.7C23,0.1,23.5,0,24,0c0.5,0,1,0.1,1.4,0.4l19,10.7
	c0.8,0.4,1.3,1.2,1.3,2.1V34.8 M24,5.2l-14.3,8l14.3,8l14.3-8L24,5.2 M7.2,33.4l14.4,8.1V25.4L7.2,17.3V33.4 M40.8,33.4V17.3
	l-14.4,8.1v16.1L40.8,33.4z"/>
</svg>
